<svg width="12" height="12" viewBox="0 0 12 12" fill="none" xmlns="http://www.w3.org/2000/svg">
<path fill-rule="evenodd" clip-rule="evenodd" d="M6 12C9.31371 12 12 9.31371 12 6C12 2.68629 9.31371 0 6 0C2.68629 0 0 2.68629 0 6C0 9.31371 2.68629 12 6 12ZM3.5099 5.3834C3.94213 5.3834 4.29251 5.03302 4.29251 4.60079C4.29251 4.16857 3.94213 3.81818 3.5099 3.81818C3.07768 3.81818 2.72729 4.16857 2.72729 4.60079C2.72729 5.03302 3.07768 5.3834 3.5099 5.3834ZM9.50989 4.60079C9.50989 5.03302 9.1595 5.3834 8.72728 5.3834C8.29506 5.3834 7.94467 5.03302 7.94467 4.60079C7.94467 4.16857 8.29506 3.81818 8.72728 3.81818C9.1595 3.81818 9.50989 4.16857 9.50989 4.60079ZM4.10561 8.07086C4.43923 8.5123 5.05832 9.03558 6.1186 9.03558C7.17889 9.03558 7.79798 8.5123 8.1316 8.07086C8.33681 7.79933 8.11629 7.47036 7.77594 7.47036H4.46127C4.12092 7.47036 3.9004 7.79933 4.10561 8.07086Z" fill="#24A8AC" fill-opacity="0.5"/>
</svg>
