<svg width="23" height="23" viewBox="0 0 23 23" fill="none" xmlns="http://www.w3.org/2000/svg">
<g clip-path="url(#clip0)">
<path d="M22.9149 11.2274C22.7338 10.9639 18.381 4.79114 11.5001 4.79114C5.59567 4.79114 0.334335 10.9284 0.112956 11.19C-0.0374894 11.3683 -0.0374894 11.6299 0.112956 11.8091C0.334335 12.0707 5.59567 18.208 11.5001 18.208C17.4045 18.208 22.6658 12.0707 22.8871 11.8091C23.0261 11.6443 23.0386 11.4057 22.9149 11.2274ZM11.5001 17.2497C7.40701 17.2497 3.48806 13.8743 1.76352 12.1619C1.39343 11.7944 1.39309 11.2045 1.76292 10.8368C3.48552 9.12378 7.40145 5.74952 11.5001 5.74952C16.2928 5.74952 19.8655 9.12484 21.3591 10.8224C21.6829 11.1904 21.6601 11.7391 21.3139 12.0861C19.632 13.7724 15.6599 17.2497 11.5001 17.2497Z" fill="#FFA200"/>
</g>
<defs>
<clipPath id="clip0">
<rect width="23" height="23" fill="white"/>
</clipPath>
</defs>
</svg>
