<svg width="22" height="22" viewBox="0 0 22 22" fill="none" xmlns="http://www.w3.org/2000/svg">
<path d="M21.5 11C21.5 16.799 16.799 21.5 11 21.5C5.20101 21.5 0.5 16.799 0.5 11C0.5 5.20101 5.20101 0.5 11 0.5C16.799 0.5 21.5 5.20101 21.5 11Z" stroke="#0087CB"/>
<mask id="path-2-inside-1" fill="white">
<path fill-rule="evenodd" clip-rule="evenodd" d="M11.5 5.5H10.5V10.5H5.5V11.5H10.5V16.5H11.5V11.5H16.5V10.5H11.5V5.5Z"/>
</mask>
<path d="M10.5 5.5V4.5H9.5V5.5H10.5ZM11.5 5.5H12.5V4.5H11.5V5.5ZM10.5 10.5V11.5H11.5V10.5H10.5ZM5.5 10.5V9.5H4.5V10.5H5.5ZM5.5 11.5H4.5V12.5H5.5V11.5ZM10.5 11.5H11.5V10.5H10.5V11.5ZM10.5 16.5H9.5V17.5H10.5V16.5ZM11.5 16.5V17.5H12.5V16.5H11.5ZM11.5 11.5V10.5H10.5V11.5H11.5ZM16.5 11.5V12.5H17.5V11.5H16.5ZM16.5 10.5H17.5V9.5H16.5V10.5ZM11.5 10.5H10.5V11.5H11.5V10.5ZM10.5 6.5H11.5V4.5H10.5V6.5ZM11.5 10.5V5.5H9.5V10.5H11.5ZM5.5 11.5H10.5V9.5H5.5V11.5ZM6.5 11.5V10.5H4.5V11.5H6.5ZM10.5 10.5H5.5V12.5H10.5V10.5ZM11.5 16.5V11.5H9.5V16.5H11.5ZM11.5 15.5H10.5V17.5H11.5V15.5ZM10.5 11.5V16.5H12.5V11.5H10.5ZM16.5 10.5H11.5V12.5H16.5V10.5ZM15.5 10.5V11.5H17.5V10.5H15.5ZM11.5 11.5H16.5V9.5H11.5V11.5ZM10.5 5.5V10.5H12.5V5.5H10.5Z" fill="#0087CB" mask="url(#path-2-inside-1)"/>
</svg>
