<svg width="25" height="25" viewBox="0 0 25 25" fill="none" xmlns="http://www.w3.org/2000/svg">
<g clip-path="url(#clip0)">
<path d="M11.5232 1.25334L11.8558 1.62667V1.62667L11.5232 1.25334ZM12.8536 1.25334L13.1862 0.880009V0.880008L12.8536 1.25334ZM3.22317 8.64786L2.89057 8.27453L2.89057 8.27453L3.22317 8.64786ZM2.98824 11.3909H3.48824V11.2181L3.38155 11.0822L2.98824 11.3909ZM21.3972 11.3797L21.0018 11.0738L20.8972 11.2089V11.3797H21.3972ZM21.3971 8.90351H20.8971V9.07943L21.0073 9.2166L21.3971 8.90351ZM18.6357 6.40471L18.3031 6.77804L19.1357 7.51981V6.40471H18.6357ZM14.9541 14.4189V13.9189H14.4541V14.4189H14.9541ZM18.6359 14.4189H19.1359V13.9189H18.6359V14.4189ZM14.9541 21.1159H14.4541V21.6159H14.9541V21.1159ZM18.6359 21.1159V21.6159H19.1359V21.1159H18.6359ZM11.8558 1.62667C12.0453 1.45778 12.3314 1.45778 12.521 1.62667L13.1862 0.880008C12.6175 0.373331 11.7593 0.37333 11.1906 0.880009L11.8558 1.62667ZM3.55577 9.02119L11.8558 1.62667L11.1906 0.880009L2.89057 8.27453L3.55577 9.02119ZM3.38155 11.0822C2.9176 10.4912 2.90752 9.59873 3.55577 9.02119L2.89057 8.27453C1.79906 9.24696 1.84697 10.7468 2.59494 11.6997L3.38155 11.0822ZM3.48824 22.986V11.3909H2.48824V22.986H3.48824ZM3.98824 23.486C3.7121 23.486 3.48824 23.2621 3.48824 22.986H2.48824C2.48824 23.8144 3.15982 24.486 3.98824 24.486V23.486ZM20.3972 23.486H3.98824V24.486H20.3972V23.486ZM20.8972 22.986C20.8972 23.2621 20.6734 23.486 20.3972 23.486V24.486C21.2257 24.486 21.8972 23.8144 21.8972 22.986H20.8972ZM20.8972 11.3797V22.986H21.8972V11.3797H20.8972ZM21.0073 9.2166C21.4572 9.7769 21.4113 10.5444 21.0018 11.0738L21.7927 11.6857C22.4527 10.8326 22.5584 9.55103 21.7869 8.59043L21.0073 9.2166ZM20.8971 6.23248V8.90351H21.8971V6.23248H20.8971ZM20.0164 5.35181C20.5028 5.35181 20.8971 5.7461 20.8971 6.23248H21.8971C21.8971 5.19381 21.0551 4.35181 20.0164 4.35181V5.35181ZM19.1357 6.23248C19.1357 5.7461 19.53 5.35181 20.0164 5.35181V4.35181C18.9778 4.35181 18.1357 5.19382 18.1357 6.23248H19.1357ZM19.1357 6.40471V6.23248H18.1357V6.40471H19.1357ZM12.521 1.62667L18.3031 6.77804L18.9684 6.03138L13.1862 0.880009L12.521 1.62667ZM14.9541 14.9189H18.6359V13.9189H14.9541V14.9189ZM15.4541 21.1159V14.4189H14.4541V21.1159H15.4541ZM18.6359 20.6159H14.9541V21.6159H18.6359V20.6159ZM18.1359 14.4189V21.1159H19.1359V14.4189H18.1359Z"/>
</g>
<defs>
<clipPath id="clip0">
<rect width="24.7325" height="24.6154" fill="white"/>
</clipPath>
</defs>
</svg>
