<svg width="24" height="24" viewBox="0 0 24 24" fill="none" xmlns="http://www.w3.org/2000/svg">
<mask id="path-1-inside-1" fill="white">
<path d="M13.0713 24H10.9287C10.2046 24 9.59338 23.433 9.50729 22.68L9.27868 20.804C8.82242 20.649 8.38242 20.458 7.96442 20.235L6.53538 21.396C5.95573 21.865 5.13982 21.811 4.63668 21.27L3.13016 19.695C2.61651 19.174 2.56486 18.321 3.01347 17.716L4.12399 16.221C3.90973 15.784 3.72703 15.324 3.57973 14.847L1.78147 14.608C1.06408 14.516 0.521729 13.877 0.521729 13.12V10.88C0.521729 10.123 1.06408 9.484 1.78434 9.394L3.57877 9.155C3.72703 8.678 3.90973 8.218 4.12303 7.781L3.01347 6.287C2.5639 5.681 2.61651 4.827 3.13495 4.301L4.64147 2.726C5.13982 2.189 5.95669 2.136 6.53442 2.604L7.96347 3.766C8.38147 3.543 8.82147 3.352 9.27868 3.197L9.50729 1.317C9.59338 0.567 10.2046 0 10.9287 0H13.0713C13.7954 0 14.4066 0.567 14.4927 1.32L14.7213 3.196C15.1785 3.351 15.6185 3.542 16.0365 3.765L17.4656 2.604C18.0462 2.135 18.8611 2.189 19.3643 2.731L20.8708 4.306C21.3844 4.827 21.4361 5.68 20.9875 6.285L19.8769 7.78C20.0912 8.217 20.2739 8.677 20.4212 9.154L22.2195 9.393C22.9359 9.484 23.4783 10.123 23.4783 10.88V13.12C23.4783 13.877 22.9359 14.516 22.2156 14.606L20.4212 14.845C20.2729 15.322 20.0903 15.782 19.8769 16.219L20.9875 17.713C21.437 18.319 21.3844 19.172 20.866 19.698L19.3595 21.273C18.8611 21.81 18.0443 21.865 17.4665 21.395L16.0365 20.234C15.6185 20.458 15.1785 20.649 14.7222 20.803L14.4936 22.683C14.4066 23.433 13.7954 24 13.0713 24ZM7.91564 19.14C7.99503 19.14 8.07634 19.161 8.14903 19.203C8.67608 19.511 9.24712 19.759 9.8459 19.939C10.0296 19.994 10.1644 20.158 10.1883 20.356L10.4562 22.556C10.4849 22.807 10.6924 23 10.9287 23H13.0713C13.3076 23 13.5151 22.807 13.5429 22.561L13.8116 20.357C13.8356 20.159 13.9704 19.995 14.1541 19.94C14.7529 19.76 15.3239 19.512 15.8509 19.204C16.0183 19.106 16.2269 19.123 16.377 19.246L18.0509 20.606C18.2432 20.762 18.5129 20.749 18.6775 20.572L20.1936 18.987C20.3667 18.811 20.3801 18.529 20.2309 18.327L18.93 16.577C18.8123 16.419 18.7961 16.202 18.8898 16.027C19.1844 15.476 19.4216 14.879 19.5938 14.253C19.6464 14.061 19.8033 13.92 19.9927 13.895L22.097 13.615C22.3371 13.584 22.5217 13.367 22.5217 13.12V10.88C22.5217 10.633 22.3371 10.416 22.1018 10.387L19.9936 10.106C19.8043 10.081 19.6474 9.94 19.5948 9.748C19.4226 9.122 19.1854 8.525 18.8908 7.974C18.797 7.799 18.8123 7.582 18.9309 7.424L20.2318 5.674C20.382 5.472 20.3686 5.19 20.2003 5.02L18.6842 3.435C18.5168 3.253 18.2461 3.239 18.0529 3.396L16.3789 4.756C16.2269 4.879 16.0193 4.896 15.8519 4.798C15.3268 4.49 14.7557 4.243 14.155 4.062C13.9714 4.007 13.8365 3.843 13.8126 3.645L13.5448 1.445C13.5151 1.193 13.3076 1 13.0713 1H10.9287C10.6924 1 10.4849 1.193 10.4571 1.439L10.1883 3.643C10.1644 3.841 10.0296 4.005 9.8459 4.061C9.24521 4.241 8.67416 4.489 8.14903 4.796C7.98164 4.895 7.77408 4.877 7.62199 4.755L5.94808 3.395C5.75486 3.238 5.48608 3.252 5.32251 3.428L3.80642 5.014C3.63329 5.19 3.6199 5.472 3.76912 5.674L5.06999 7.424C5.18764 7.582 5.2039 7.799 5.11016 7.974C4.8146 8.525 4.57834 9.122 4.40616 9.748C4.35355 9.94 4.19669 10.081 4.00729 10.106L1.90295 10.386C1.66286 10.416 1.47825 10.633 1.47825 10.88V13.12C1.47825 13.367 1.66286 13.584 1.89816 13.613L4.00634 13.894C4.19573 13.919 4.3526 14.06 4.40521 14.252C4.57738 14.878 4.8146 15.475 5.10921 16.026C5.20295 16.201 5.18764 16.418 5.06903 16.576L3.76816 18.326C3.61799 18.528 3.63138 18.81 3.79973 18.98L5.31582 20.565C5.48321 20.746 5.75199 20.76 5.94712 20.604L7.62103 19.244C7.70808 19.176 7.81138 19.14 7.91564 19.14Z"/>
</mask>
<path d="M13.0713 24H10.9287C10.2046 24 9.59338 23.433 9.50729 22.68L9.27868 20.804C8.82242 20.649 8.38242 20.458 7.96442 20.235L6.53538 21.396C5.95573 21.865 5.13982 21.811 4.63668 21.27L3.13016 19.695C2.61651 19.174 2.56486 18.321 3.01347 17.716L4.12399 16.221C3.90973 15.784 3.72703 15.324 3.57973 14.847L1.78147 14.608C1.06408 14.516 0.521729 13.877 0.521729 13.12V10.88C0.521729 10.123 1.06408 9.484 1.78434 9.394L3.57877 9.155C3.72703 8.678 3.90973 8.218 4.12303 7.781L3.01347 6.287C2.5639 5.681 2.61651 4.827 3.13495 4.301L4.64147 2.726C5.13982 2.189 5.95669 2.136 6.53442 2.604L7.96347 3.766C8.38147 3.543 8.82147 3.352 9.27868 3.197L9.50729 1.317C9.59338 0.567 10.2046 0 10.9287 0H13.0713C13.7954 0 14.4066 0.567 14.4927 1.32L14.7213 3.196C15.1785 3.351 15.6185 3.542 16.0365 3.765L17.4656 2.604C18.0462 2.135 18.8611 2.189 19.3643 2.731L20.8708 4.306C21.3844 4.827 21.4361 5.68 20.9875 6.285L19.8769 7.78C20.0912 8.217 20.2739 8.677 20.4212 9.154L22.2195 9.393C22.9359 9.484 23.4783 10.123 23.4783 10.88V13.12C23.4783 13.877 22.9359 14.516 22.2156 14.606L20.4212 14.845C20.2729 15.322 20.0903 15.782 19.8769 16.219L20.9875 17.713C21.437 18.319 21.3844 19.172 20.866 19.698L19.3595 21.273C18.8611 21.81 18.0443 21.865 17.4665 21.395L16.0365 20.234C15.6185 20.458 15.1785 20.649 14.7222 20.803L14.4936 22.683C14.4066 23.433 13.7954 24 13.0713 24ZM7.91564 19.14C7.99503 19.14 8.07634 19.161 8.14903 19.203C8.67608 19.511 9.24712 19.759 9.8459 19.939C10.0296 19.994 10.1644 20.158 10.1883 20.356L10.4562 22.556C10.4849 22.807 10.6924 23 10.9287 23H13.0713C13.3076 23 13.5151 22.807 13.5429 22.561L13.8116 20.357C13.8356 20.159 13.9704 19.995 14.1541 19.94C14.7529 19.76 15.3239 19.512 15.8509 19.204C16.0183 19.106 16.2269 19.123 16.377 19.246L18.0509 20.606C18.2432 20.762 18.5129 20.749 18.6775 20.572L20.1936 18.987C20.3667 18.811 20.3801 18.529 20.2309 18.327L18.93 16.577C18.8123 16.419 18.7961 16.202 18.8898 16.027C19.1844 15.476 19.4216 14.879 19.5938 14.253C19.6464 14.061 19.8033 13.92 19.9927 13.895L22.097 13.615C22.3371 13.584 22.5217 13.367 22.5217 13.12V10.88C22.5217 10.633 22.3371 10.416 22.1018 10.387L19.9936 10.106C19.8043 10.081 19.6474 9.94 19.5948 9.748C19.4226 9.122 19.1854 8.525 18.8908 7.974C18.797 7.799 18.8123 7.582 18.9309 7.424L20.2318 5.674C20.382 5.472 20.3686 5.19 20.2003 5.02L18.6842 3.435C18.5168 3.253 18.2461 3.239 18.0529 3.396L16.3789 4.756C16.2269 4.879 16.0193 4.896 15.8519 4.798C15.3268 4.49 14.7557 4.243 14.155 4.062C13.9714 4.007 13.8365 3.843 13.8126 3.645L13.5448 1.445C13.5151 1.193 13.3076 1 13.0713 1H10.9287C10.6924 1 10.4849 1.193 10.4571 1.439L10.1883 3.643C10.1644 3.841 10.0296 4.005 9.8459 4.061C9.24521 4.241 8.67416 4.489 8.14903 4.796C7.98164 4.895 7.77408 4.877 7.62199 4.755L5.94808 3.395C5.75486 3.238 5.48608 3.252 5.32251 3.428L3.80642 5.014C3.63329 5.19 3.6199 5.472 3.76912 5.674L5.06999 7.424C5.18764 7.582 5.2039 7.799 5.11016 7.974C4.8146 8.525 4.57834 9.122 4.40616 9.748C4.35355 9.94 4.19669 10.081 4.00729 10.106L1.90295 10.386C1.66286 10.416 1.47825 10.633 1.47825 10.88V13.12C1.47825 13.367 1.66286 13.584 1.89816 13.613L4.00634 13.894C4.19573 13.919 4.3526 14.06 4.40521 14.252C4.57738 14.878 4.8146 15.475 5.10921 16.026C5.20295 16.201 5.18764 16.418 5.06903 16.576L3.76816 18.326C3.61799 18.528 3.63138 18.81 3.79973 18.98L5.31582 20.565C5.48321 20.746 5.75199 20.76 5.94712 20.604L7.62103 19.244C7.70808 19.176 7.81138 19.14 7.91564 19.14Z" stroke-width="2" mask="url(#path-1-inside-1)"/>
<path d="M12.2427 17.183C9.5499 17.183 7.35913 14.9157 7.35913 12.1288C7.35913 9.34199 9.5499 7.07471 12.2427 7.07471C14.9355 7.07471 17.1262 9.34199 17.1262 12.1288C17.1262 14.9157 14.9355 17.183 12.2427 17.183ZM12.2427 8.08553C10.0881 8.08553 8.33584 9.89896 8.33584 12.1288C8.33584 14.3587 10.0881 16.1721 12.2427 16.1721C14.3973 16.1721 16.1495 14.3587 16.1495 12.1288C16.1495 9.89896 14.3973 8.08553 12.2427 8.08553Z"/>
</svg>
