<svg width="24" height="24" viewBox="0 0 24 24" fill="none" xmlns="http://www.w3.org/2000/svg">
<path d="M20.4853 3.51469C18.2188 1.24819 15.2053 0 12 0C8.79469 0 5.78119 1.24819 3.51469 3.51469C1.24823 5.78119 0 8.79469 0 12C0 15.2053 1.24823 18.2188 3.51469 20.4853C5.78119 22.7518 8.79469 24 12 24C15.2053 24 18.2188 22.7518 20.4853 20.4853C22.7518 18.2188 24 15.2053 24 12C24 8.79469 22.7518 5.78119 20.4853 3.51469ZM12 23C6.15858 23 1 17.8414 1 12C1 6.15858 6.15858 1 12 1C17.8414 1 23 6.15858 23 12C23 17.8414 17.8414 23 12 23Z"/>
<path d="M12.7533 11.2969H11.247C10.3888 11.2969 9.69072 10.5988 9.69072 9.74067C9.69072 8.88253 10.3889 8.18442 11.247 8.18442H14.2595C14.6478 8.18442 14.9626 7.86961 14.9626 7.4813C14.9626 7.09299 14.6478 6.77817 14.2595 6.77817H12.7032V5.22192C12.7032 4.83361 12.3884 4.5188 12.0001 4.5188C11.6118 4.5188 11.297 4.83361 11.297 5.22192V6.77817H11.247C9.61347 6.77817 8.28452 8.10717 8.28452 9.74067C8.28452 11.3742 9.61352 12.7031 11.247 12.7031H12.7533C13.6114 12.7031 14.3095 13.4013 14.3095 14.2594C14.3095 15.1175 13.6114 15.8156 12.7533 15.8156H9.74078C9.35247 15.8156 9.03766 16.1304 9.03766 16.5188C9.03766 16.9071 9.35247 17.2219 9.74078 17.2219H11.297V18.7782C11.297 19.1665 11.6118 19.4813 12.0001 19.4813C12.3884 19.4813 12.7032 19.1665 12.7032 18.7782V17.2219H12.7533C14.3868 17.2219 15.7157 15.8929 15.7157 14.2594C15.7157 12.6259 14.3868 11.2969 12.7533 11.2969Z"/>
</svg>
