<svg width="50" height="76" viewBox="0 0 50 76" fill="none" xmlns="http://www.w3.org/2000/svg">
<rect width="50" height="76" fill="#0087CB"/>
<path fill-rule="evenodd" clip-rule="evenodd" d="M25 41C31.0751 41 36 36.0751 36 30C36 23.9249 31.0751 19 25 19C18.9249 19 14 23.9249 14 30C14 36.0751 18.9249 41 25 41ZM20.4348 28.8696C21.2272 28.8696 21.8696 28.2272 21.8696 27.4348C21.8696 26.6424 21.2272 26 20.4348 26C19.6424 26 19 26.6424 19 27.4348C19 28.2272 19.6424 28.8696 20.4348 28.8696ZM31.4348 27.4348C31.4348 28.2272 30.7924 28.8696 30 28.8696C29.2076 28.8696 28.5652 28.2272 28.5652 27.4348C28.5652 26.6424 29.2076 26 30 26C30.7924 26 31.4348 26.6424 31.4348 27.4348ZM21.2085 33.3174C21.698 34.1613 22.8658 35.5652 25.2174 35.5652C27.5689 35.5652 28.7367 34.1613 29.2263 33.3174C29.3971 33.023 29.1716 32.6957 28.8312 32.6957L21.6035 32.6957C21.2632 32.6957 21.0377 33.023 21.2085 33.3174Z" fill="white"/>
<path d="M10.8555 45.3633H12.8672C13.3958 45.3633 13.8281 45.5326 14.1641 45.8711C14.5026 46.207 14.6719 46.6406 14.6719 47.1719C14.6719 47.7057 14.5026 48.1419 14.1641 48.4805C13.8255 48.819 13.3906 48.9883 12.8594 48.9883H11.5586V51H10.8555V45.3633ZM11.5586 45.9883V48.3633H12.6836C13.0846 48.3633 13.3958 48.2591 13.6172 48.0508C13.8385 47.8398 13.9492 47.5469 13.9492 47.1719C13.9492 46.7969 13.8385 46.5065 13.6172 46.3008C13.3984 46.0924 13.0872 45.9883 12.6836 45.9883H11.5586ZM16.918 47.457C16.6029 47.457 16.3411 47.5664 16.1328 47.7852C15.9271 48.0013 15.8138 48.2799 15.793 48.6211H18C17.9922 48.2773 17.8893 47.9974 17.6914 47.7812C17.4935 47.5651 17.2357 47.457 16.918 47.457ZM17.9844 49.8359H18.6523C18.5924 50.1953 18.4049 50.4909 18.0898 50.7227C17.7773 50.9544 17.401 51.0703 16.9609 51.0703C16.3802 51.0703 15.9232 50.8828 15.5898 50.5078C15.2565 50.1328 15.0898 49.625 15.0898 48.9844C15.0898 48.349 15.2565 47.8372 15.5898 47.4492C15.9258 47.0612 16.3724 46.8672 16.9297 46.8672C17.4766 46.8672 17.9089 47.0508 18.2266 47.418C18.5443 47.7852 18.7031 48.2773 18.7031 48.8945V49.1523H15.7891V49.1914C15.7891 49.582 15.8958 49.8945 16.1094 50.1289C16.3229 50.3633 16.612 50.4805 16.9766 50.4805C17.2318 50.4805 17.4492 50.4219 17.6289 50.3047C17.8086 50.1875 17.9271 50.0312 17.9844 49.8359ZM20.8008 50.4922C21.1211 50.4922 21.3893 50.3932 21.6055 50.1953C21.8242 49.9948 21.9336 49.7487 21.9336 49.457V49.125L20.8477 49.1914C20.5742 49.2096 20.362 49.276 20.2109 49.3906C20.0625 49.5052 19.9883 49.6589 19.9883 49.8516C19.9883 50.0443 20.0625 50.1992 20.2109 50.3164C20.3594 50.4336 20.556 50.4922 20.8008 50.4922ZM20.6484 51.0703C20.2448 51.0703 19.918 50.9583 19.668 50.7344C19.4206 50.5104 19.2969 50.2161 19.2969 49.8516C19.2969 49.5026 19.4245 49.224 19.6797 49.0156C19.9375 48.8073 20.3008 48.6901 20.7695 48.6641L21.9336 48.5977V48.2578C21.9336 48.0104 21.8555 47.8164 21.6992 47.6758C21.543 47.5352 21.3242 47.4648 21.043 47.4648C20.7852 47.4648 20.5755 47.5221 20.4141 47.6367C20.2526 47.7487 20.1497 47.9062 20.1055 48.1094H19.4492C19.4727 47.7474 19.6289 47.4505 19.918 47.2188C20.2096 46.9844 20.5898 46.8672 21.0586 46.8672C21.5352 46.8672 21.9128 46.987 22.1914 47.2266C22.4727 47.4661 22.6133 47.7878 22.6133 48.1914V51H21.9688V50.3008H21.9531C21.8307 50.5326 21.651 50.7188 21.4141 50.8594C21.1771 51 20.9219 51.0703 20.6484 51.0703ZM24.9297 48.8594L26.8828 51H26.0078L24.2539 49.0469H24.2227V51H23.5508V46.9375H24.2227V48.7344H24.2539L25.9883 46.9375H26.8281L24.9297 48.8594ZM31.3711 52.0742H30.7383V51H27.4492V46.9375H28.1211V50.4414H30.0508V46.9375H30.7227V50.4414H31.3711V52.0742ZM32.6523 51H31.9805V46.9375H32.6523V49.9609H32.6836L34.7148 46.9375H35.3867V51H34.7148V47.9766H34.6836L32.6523 51ZM37.8008 48.9961H38.5781V47.4961H37.8008C37.5352 47.4961 37.3242 47.5651 37.168 47.7031C37.0143 47.8411 36.9375 48.0312 36.9375 48.2734C36.9375 48.487 37.0156 48.6615 37.1719 48.7969C37.3307 48.9297 37.5404 48.9961 37.8008 48.9961ZM38.5781 51V49.5547H37.8594L36.8281 51H36.0508L37.1836 49.4297C36.8945 49.3464 36.668 49.2044 36.5039 49.0039C36.3424 48.8034 36.2617 48.5638 36.2617 48.2852C36.2617 47.8685 36.3997 47.5404 36.6758 47.3008C36.9544 47.0586 37.3281 46.9375 37.7969 46.9375H39.25V51H38.5781Z" fill="white"/>
</svg>
