<svg width="11" height="15" viewBox="0 0 11 15" fill="none" xmlns="http://www.w3.org/2000/svg">
<path fill-rule="evenodd" clip-rule="evenodd" d="M2.2096 0C1.47307 0 0 0.24929 0 0.24929V0.664779V6.98011V13.9602C0 14.3274 0.297629 14.625 0.664773 14.625C1.03192 14.625 1.32955 14.3274 1.32955 13.9602V6.92004C1.74891 6.91793 2.24318 6.93007 2.77595 6.97192C3.52726 7.03094 4.29815 7.2513 5.06577 7.47073C5.95398 7.72463 6.8378 7.97727 7.68186 7.97727C9.07595 7.97727 10.6364 7.2294 10.6364 7.2294V0C10.6364 0 8.93301 0.997159 7.58924 0.997159C6.69264 0.997159 5.79603 0.747869 4.89942 0.49858C4.00282 0.24929 3.10621 0 2.2096 0Z" fill="#FFA200"/>
</svg>
