<svg width="50" height="76" viewBox="0 0 50 76" fill="none" xmlns="http://www.w3.org/2000/svg">
<rect width="50" height="76" fill="#FFA200"/>
<path fill-rule="evenodd" clip-rule="evenodd" d="M20.3238 19C19.2159 19 17 19.375 17 19.375V20V29.5V40C17 40.5523 17.4477 41 18 41C18.5523 41 19 40.5523 19 40V29.4096C19.6308 29.4065 20.3744 29.4247 21.1758 29.4877C22.306 29.5765 23.4656 29.9079 24.6203 30.238C25.9564 30.62 27.2859 31 28.5556 31C30.6527 31 33 29.875 33 29.875V19C33 19 30.4377 20.5 28.4163 20.5C27.0676 20.5 25.7188 20.125 24.3701 19.75C23.0213 19.375 21.6726 19 20.3238 19Z" fill="white"/>
<path d="M14.0156 49.8594V46.4648C13.4661 46.4857 13.0312 46.6484 12.7109 46.9531C12.3932 47.2552 12.2344 47.6576 12.2344 48.1602C12.2344 48.668 12.3932 49.0742 12.7109 49.3789C13.0312 49.681 13.4661 49.8411 14.0156 49.8594ZM16.4883 48.1641C16.4883 47.6589 16.3294 47.2539 16.0117 46.9492C15.694 46.6445 15.2604 46.4831 14.7109 46.4648V49.8594C15.2604 49.8385 15.694 49.6771 16.0117 49.375C16.3294 49.0703 16.4883 48.6667 16.4883 48.1641ZM14.0156 50.4883C13.2526 50.4701 12.6458 50.2513 12.1953 49.832C11.7474 49.4128 11.5234 48.8555 11.5234 48.1602C11.5234 47.4674 11.7474 46.9128 12.1953 46.4961C12.6432 46.0768 13.25 45.8568 14.0156 45.8359V45.2852H14.7109V45.8359C15.474 45.8542 16.0794 46.0729 16.5273 46.4922C16.9753 46.9115 17.1992 47.4688 17.1992 48.1641C17.1992 48.8568 16.9753 49.4128 16.5273 49.832C16.0794 50.2487 15.474 50.4674 14.7109 50.4883V51.0781H14.0156V50.4883ZM19.0195 49.207C19.0013 49.4414 18.9753 49.6484 18.9414 49.8281C18.9102 50.0078 18.8646 50.1758 18.8047 50.332C18.7448 50.4883 18.6706 50.6172 18.582 50.7188C18.4961 50.8177 18.388 50.8958 18.2578 50.9531C18.1302 51.0078 17.9818 51.0352 17.8125 51.0352C17.7188 51.0352 17.638 51.0208 17.5703 50.9922V50.3789C17.6328 50.3997 17.7018 50.4102 17.7773 50.4102C17.9674 50.4102 18.1094 50.3073 18.2031 50.1016C18.2969 49.8932 18.3568 49.5898 18.3828 49.1914L18.5391 46.9375H21.1992V51H20.5273V47.4961H19.1445L19.0195 49.207ZM23.5039 50.4922C23.8242 50.4922 24.0924 50.3932 24.3086 50.1953C24.5273 49.9948 24.6367 49.7487 24.6367 49.457V49.125L23.5508 49.1914C23.2773 49.2096 23.0651 49.276 22.9141 49.3906C22.7656 49.5052 22.6914 49.6589 22.6914 49.8516C22.6914 50.0443 22.7656 50.1992 22.9141 50.3164C23.0625 50.4336 23.2591 50.4922 23.5039 50.4922ZM23.3516 51.0703C22.9479 51.0703 22.6211 50.9583 22.3711 50.7344C22.1237 50.5104 22 50.2161 22 49.8516C22 49.5026 22.1276 49.224 22.3828 49.0156C22.6406 48.8073 23.0039 48.6901 23.4727 48.6641L24.6367 48.5977V48.2578C24.6367 48.0104 24.5586 47.8164 24.4023 47.6758C24.2461 47.5352 24.0273 47.4648 23.7461 47.4648C23.4883 47.4648 23.2786 47.5221 23.1172 47.6367C22.9557 47.7487 22.8529 47.9062 22.8086 48.1094H22.1523C22.1758 47.7474 22.332 47.4505 22.6211 47.2188C22.9128 46.9844 23.293 46.8672 23.7617 46.8672C24.2383 46.8672 24.6159 46.987 24.8945 47.2266C25.1758 47.4661 25.3164 47.7878 25.3164 48.1914V51H24.6719V50.3008H24.6562C24.5339 50.5326 24.3542 50.7188 24.1172 50.8594C23.8802 51 23.625 51.0703 23.3516 51.0703ZM29.7734 48.8594L31.6094 51H30.7383L29.0977 49.0469H29.0664V51H28.3945V49.0469H28.3672L26.7266 51H25.8672L27.6914 48.8711L25.9102 46.9375H26.7461L28.3672 48.7344H28.3945V46.9375H29.0664V48.7344H29.0977L30.7188 46.9375H31.5469L29.7734 48.8594ZM33.7539 51.0703C33.1862 51.0703 32.7305 50.8815 32.3867 50.5039C32.043 50.1237 31.8711 49.612 31.8711 48.9688C31.8711 48.3255 32.043 47.8151 32.3867 47.4375C32.7305 47.0573 33.1862 46.8672 33.7539 46.8672C34.319 46.8672 34.7734 47.0573 35.1172 47.4375C35.4609 47.8151 35.6328 48.3255 35.6328 48.9688C35.6328 49.6094 35.4609 50.1198 35.1172 50.5C34.7734 50.8802 34.319 51.0703 33.7539 51.0703ZM32.8828 50.0742C33.099 50.3398 33.3893 50.4727 33.7539 50.4727C34.1185 50.4727 34.4076 50.3411 34.6211 50.0781C34.8346 49.8125 34.9414 49.4427 34.9414 48.9688C34.9414 48.4948 34.8346 48.1263 34.6211 47.8633C34.4076 47.5977 34.1185 47.4648 33.7539 47.4648C33.3893 47.4648 33.099 47.5977 32.8828 47.8633C32.6693 48.1289 32.5625 48.4974 32.5625 48.9688C32.5625 49.4401 32.6693 49.8086 32.8828 50.0742ZM37.7656 48.8594L39.7188 51H38.8438L37.0898 49.0469H37.0586V51H36.3867V46.9375H37.0586V48.7344H37.0898L38.8242 46.9375H39.6641L37.7656 48.8594Z" fill="white"/>
</svg>
