<svg width="26" height="26" viewBox="0 0 26 26" fill="none" xmlns="http://www.w3.org/2000/svg">
<path d="M9.30077 25.0002H2C1.44772 25.0002 1 24.5525 1 24.0002V16.6995" fill="none" stroke-linecap="round"/>
<path d="M16.6992 25.0002H24C24.5523 25.0002 25 24.5525 25 24.0002V16.6995" fill="none" stroke-linecap="round"/>
<path d="M9.30077 1H2C1.44772 1 1 1.44771 1 2V9.30077" fill="none" stroke-linecap="round"/>
<path d="M16.6992 1.00024H24C24.5523 1.00024 25 1.44796 25 2.00024V9.30101" fill="none" stroke-linecap="round"/>
<rect x="4.24835" y="4.24829" width="7.57896" height="7.57896" rx="1" />
<rect x="4.24835" y="13.9927" width="7.57896" height="7.57896" rx="1" />
<rect x="13.9924" y="13.9927" width="2.70677" height="2.70677" rx="1" />
<rect x="13.9924" y="18.8647" width="2.70677" height="2.70677" rx="1" />
<rect x="18.8647" y="13.9927" width="2.70677" height="2.70677" rx="1" />
<rect x="18.8647" y="18.8647" width="2.70677" height="2.70677" rx="1" />
<rect x="16.6995" y="16.6992" width="2.16542" height="2.16542" rx="1" />
<rect x="13.9924" y="4.24829" width="7.57896" height="7.57896" rx="1" />
</svg>
